<svg id="Layer_3" data-name="Layer 3" xmlns="http://www.w3.org/2000/svg" viewBox="0 0 449.39 164.37"><defs><style>.cls-1{fill:#fff;}.cls-2{fill:#d8a916;}</style></defs><title>codeboom</title><path d="M39.2,153.15s5.76-.48,12.08,9.13,11.41,11.17,11.41,11.17,5.19,1.64,7.09-2.57a6.44,6.44,0,0,0-1.36-7.19s-4.71-4.21-10.2-3.75c0,0,7.68-2.47,16.38,4.16s7.92,17.66,7.92,17.66.25,13.14-12.92,14.72-18.54-15.3-18.54-15.3l-4.65-15.84S43.22,154.33,39.2,153.15Z" transform="translate(-39.2 -153.15)"/><path class="cls-1" d="M56.3,175.45S73,187.32,75.16,170.27A18.58,18.58,0,0,1,75,192.79S58.51,201.63,56.3,175.45Z" transform="translate(-39.2 -153.15)"/><path d="M178.65,271.62l-9.62-7.4a3.12,3.12,0,0,1-1.09-3.28,54.71,54.71,0,0,0,1.47-9.86,3.14,3.14,0,0,1,2.06-2.75l11.42-4.09a3.17,3.17,0,0,0,2-3.71l-4.46-18.37A3.13,3.13,0,0,0,177,219.8l-12.07,1.55a3.14,3.14,0,0,1-3.1-1.49,54.76,54.76,0,0,0-5.8-8.09,3.14,3.14,0,0,1-.47-3.4l5.17-11a3.15,3.15,0,0,0-1.2-4l-16.23-9.91a3.16,3.16,0,0,0-4.15.77l-7.39,9.61a3.12,3.12,0,0,1-3.33,1.18,52.06,52.06,0,0,0-9.85-1.46,3.14,3.14,0,0,1-2.74-2.08l-4.1-11.43a3.15,3.15,0,0,0-3.72-2L89.66,182.5A3.18,3.18,0,0,0,87.27,186l1.58,12a3.11,3.11,0,0,1-1.48,3.1,52.75,52.75,0,0,0-8.1,5.82,3.13,3.13,0,0,1-3.4.45l-11-5.17a3.15,3.15,0,0,0-4,1.22L51,219.64a3.17,3.17,0,0,0,.77,4.14l9.62,7.39a3.11,3.11,0,0,1,1.14,3.23A54.71,54.71,0,0,0,61,244.26,3.1,3.1,0,0,1,59,247L47.5,251.14a3.15,3.15,0,0,0-2,3.7L50,273.31a3.17,3.17,0,0,0,3.48,2.4l12-1.58a3.15,3.15,0,0,1,3.1,1.49,53.49,53.49,0,0,0,5.83,7.88,3.12,3.12,0,0,1,.46,3.39l-5.17,11a3.16,3.16,0,0,0,1.21,4l16.23,9.9A3.16,3.16,0,0,0,91.3,311l7.39-9.62a3.16,3.16,0,0,1,3.31-1.1,53.72,53.72,0,0,0,9.85,1.46,3.15,3.15,0,0,1,2.73,2.08l4.06,11.58a3.12,3.12,0,0,0,3.7,2L140.83,313a3.15,3.15,0,0,0,2.31-3.46l-1.57-12a3.14,3.14,0,0,1,1.5-3.09,55.87,55.87,0,0,0,8.1-5.81,3.12,3.12,0,0,1,3.38-.47l11,5.17a3.14,3.14,0,0,0,4-1.2l9.93-16.26A3.16,3.16,0,0,0,178.65,271.62Zm-78.27.42a28.53,28.53,0,1,1,39.2-9.55l0,.07A28.54,28.54,0,0,1,100.38,272Z" transform="translate(-39.2 -153.15)"/><path d="M93.21,222.31c-.76,0-.33-.36-.78-1l-22.5-31.79a2.35,2.35,0,1,1,3.9-2.62l19.56,31.79c.73,1.08,2.2,2.54,1.12,3.26A2.31,2.31,0,0,1,93.21,222.31Z" transform="translate(-39.2 -153.15)"/><rect x="68.36" y="185.69" width="7.05" height="4.97" rx="0.62" transform="translate(-135.71 -75.52) rotate(-35.81)"/><path class="cls-1" d="M115.22,212.08a35.82,35.82,0,0,0-8.21,1l-6-8.24a2.27,2.27,0,0,0-3.18-.51l-17.32,12.5A2.27,2.27,0,0,0,80,220l5.65,7.83a35.62,35.62,0,1,0,29.53-15.71Z" transform="translate(-39.2 -153.15)"/><circle cx="60.99" cy="97.51" r="4.15"/><circle cx="100.6" cy="98.13" r="3.94"/><path d="M114.29,254.81h12.45a1,1,0,0,1,1,1c0,1-1,9.33-6.84,9.33s-7.05-6.64-7.05-6.64S113.05,254.81,114.29,254.81Z" transform="translate(-39.2 -153.15)"/><path class="cls-2" d="M120.87,265.18a5.63,5.63,0,0,0,4.85-2.89,6.33,6.33,0,0,0-3.19-3.75,8.91,8.91,0,0,0-3.73-.83A9.07,9.07,0,0,0,114,259.1C114.41,260.7,116.1,265.18,120.87,265.18Z" transform="translate(-39.2 -153.15)"/><path class="cls-2" d="M213.74,221l5.34-5.34h13.17l5.34,5.34v15.22h-8.54V224.56l-1.78-1.78h-3.21l-1.78,1.78v49.67l1.78,1.77h3.21l1.78-1.77V262.65h8.54V278l-5.34,5.34H219.08L213.74,278Z" transform="translate(-39.2 -153.15)"/><path class="cls-2" d="M271.33,278,266,283.3H251.12L245.78,278V221l5.34-5.34H266l5.35,5.34Zm-15.22-55-1.78,1.78v49.49l1.78,1.77H261l1.78-1.77V224.74L261,223Z" transform="translate(-39.2 -153.15)"/><path class="cls-2" d="M305.86,221v57l-5.34,5.34h-20V215.66h20Zm-8.55,53.23V224.74L295.53,223H289v53h6.49Z" transform="translate(-39.2 -153.15)"/><path class="cls-2" d="M315,215.66h21.09V223H323.57v22.43h10.95v7.3H323.57V276H336.3v7.3H315Z" transform="translate(-39.2 -153.15)"/><path d="M373.06,221v22.43l-5.34,5.34,5.34,5.34V278l-5.34,5.34H348V215.66h19.76Zm-8.54,22.61V224.56l-1.78-1.78h-6.23v22.61h6.23Zm-8,8.9V276h6.23l1.78-1.77V254.29l-1.78-1.78Z" transform="translate(-39.2 -153.15)"/><path d="M407.33,278,402,283.3H387.12L381.78,278V221l5.34-5.34H402l5.34,5.34Zm-15.22-55-1.78,1.78v49.49l1.78,1.77H397l1.78-1.77V224.74L397,223Z" transform="translate(-39.2 -153.15)"/><path d="M441.77,278l-5.34,5.34H421.57L416.23,278V221l5.34-5.34h14.86l5.34,5.34Zm-15.22-55-1.78,1.78v49.49l1.78,1.77h4.9l1.78-1.77V224.74L431.45,223Z" transform="translate(-39.2 -153.15)"/><path d="M465.36,283.3l-6.68-53v53h-7.74V215.66h12.37l6.32,54.65L476,215.66h12.64V283.3h-8.1v-53l-6.67,53Z" transform="translate(-39.2 -153.15)"/></svg>